<svg width="39" height="39" viewBox="0 0 39 39" fill="none" xmlns="http://www.w3.org/2000/svg">
<g clip-path="url(#clip0_25_466)">
<path d="M0 16.2002C0 15.6663 0.533287 15.2967 1.03321 15.4842L14.6006 20.572C14.899 20.6839 15.0968 20.9692 15.0968 21.288V38.2353C15.0968 38.6578 14.7544 39 14.3321 39H0.764706C0.34237 39 0 38.6578 0 38.2353V16.2002Z" fill="black"/>
<path d="M28.9355 16.3341C28.9355 15.7656 29.5338 15.3959 30.0423 15.6501L38.5773 19.9177C38.8365 20.0472 39.0001 20.312 39.0001 20.6016V38.2353C39.0001 38.6578 38.6576 39 38.2354 39H29.7003C29.2779 39 28.9355 38.6578 28.9355 38.2353V16.3341Z" fill="black"/>
<path d="M26.6379 0.39971L11.8124 6.10179C11.5172 6.21539 11.3223 6.49913 11.3223 6.81553V17.712C11.3223 18.0308 11.52 18.3161 11.8184 18.428L15.8583 19.943C16.1568 20.0549 16.3545 20.3402 16.3545 20.659V38.2353C16.3545 38.6578 16.6969 39 17.1192 39H26.9124C27.3347 39 27.6771 38.6578 27.6771 38.2353V1.11344C27.6771 0.576789 27.1388 0.207061 26.6379 0.39971Z" fill="black"/>
</g>
<defs>
<clipPath id="clip0_25_466">
<rect width="39" height="39" fill="white"/>
</clipPath>
</defs>
</svg>
